Coordinates
version=1
nRows=26
nColumns=33
inDegrees=yes

Units are S.I. units (second, meters, Newtons, ...)
Angles are in degrees.

endheader
time	ground_thorax_rot_x	ground_thorax_rot_y	ground_thorax_rot_z	ground_thorax_tx	ground_thorax_ty	ground_thorax_tz	clav_prot_r	clav_elev_r	scapula_abduction_r	scapula_elevation_r	scapula_upward_rot_r	scapula_winging_r	shoulder_elv_r	plane_of_elev_r	axial_rot_r	elbow_flexion_r	pro_sup_r	wrist_flex_r	wrist_dev_r	clav_prot_l	clav_elev_l	scapula_abduction_l	scapula_elevation_l	scapula_upward_rot_l	scapula_winging_l	shoulder_elv_l	plane_of_elev_l	axial_rot_l	elbow_flexion_l	pro_sup_l	wrist_flex_l	wrist_dev_l	
2.6400	35.350149	16.760405	24.934486	-174.804808	820.356737	7.157134	15.254480	38.028650	39.399407	45.000000	-45.000000	-87.141442	-3525.995503	33.604607	27.574573	1095.718625	55.432543	18.699754	4.464380	10.378994	-45.000000	-39.088881	45.000000	-41.688817	-261.544461	-1725.514701	23.122410	-24.843672	7.680930	10.223027	11.393980	-20.929155	
2.6500	35.587939	16.207049	24.230083	-179.745427	822.515635	7.171554	15.325986	38.017804	39.404419	45.000000	-45.000000	-87.511244	-3525.955062	33.668342	29.204707	1096.036889	57.426418	18.229760	4.146587	10.311648	-45.000000	-39.203374	45.000000	-41.143092	-261.168714	-1725.331473	22.868369	-25.842075	7.812173	9.730209	11.300904	-21.013062	
2.6600	35.795211	15.714818	23.651525	-184.642013	824.626192	7.188774	15.400020	37.986367	39.405614	45.000000	-45.000000	-87.738605	-3525.874842	33.558061	30.515952	1096.357219	59.791039	17.769202	3.859498	10.340427	-45.000000	-39.177030	45.000000	-41.031346	-260.809094	-1725.115097	22.725304	-26.781787	7.924016	9.159706	11.131442	-21.078032	
2.6700	36.007484	15.229803	23.066531	-189.450773	826.638742	7.211853	15.419201	37.956357	39.367779	45.000000	-45.000000	-87.953477	-3525.797369	33.468476	31.724675	1096.718815	62.666165	17.376219	3.663693	10.358690	-45.000000	-39.131747	45.000000	-41.078139	-260.505039	-1724.912042	22.602764	-27.515540	8.018320	8.473584	10.977987	-21.100811	
2.6800	36.214402	14.769849	22.510899	-194.156287	828.538714	7.241862	15.409289	37.916990	39.306917	45.000000	-45.000000	-88.138621	-3525.733269	33.357229	32.878094	1097.128429	66.120376	17.009539	3.530227	10.385656	-45.000000	-39.047331	45.000000	-41.297072	-260.236339	-1724.723422	22.513187	-28.117010	8.091733	7.728002	10.832566	-21.090902	
2.6900	36.415191	14.334168	21.978533	-198.736886	830.304954	7.280322	15.374148	37.872779	39.215812	45.000000	-45.000000	-88.306901	-3525.694910	33.252523	34.052777	1097.582122	70.185918	16.666376	3.459269	10.408141	-45.000000	-38.941174	45.000000	-41.624853	-260.001752	-1724.556002	22.437428	-28.603728	8.136657	6.970246	10.705684	-21.052533	
2.7000	36.609180	13.921844	21.465523	-203.178722	831.926476	7.328060	15.326340	37.825331	39.106822	45.000000	-45.000000	-88.468947	-3525.697807	33.153446	35.361516	1098.089489	74.857291	16.323465	3.432095	10.420379	-45.000000	-38.828218	45.000000	-41.996007	-259.785459	-1724.417994	22.364369	-29.021464	8.163577	6.268260	10.601120	-20.998728	
2.7100	36.796521	13.537150	20.974378	-207.471873	833.397838	7.385247	15.259147	37.796078	38.966156	45.000000	-45.000000	-88.614583	-3525.725829	33.058840	36.827381	1098.673869	80.300069	16.006214	3.442076	10.435053	-45.000000	-38.696554	45.000000	-42.449577	-259.602511	-1724.308002	22.305396	-29.309369	8.166516	5.638610	10.494928	-20.933403	
2.7200	36.977290	13.180061	20.503826	-211.607181	834.715164	7.451466	15.188004	37.779560	38.804284	45.000000	-45.000000	-88.748894	-3525.785516	32.958130	38.553292	1099.346229	86.536395	15.681938	3.488524	10.444783	-45.000000	-38.553905	45.000000	-42.934248	-259.435666	-1724.227422	22.249963	-29.543727	8.165139	5.138947	10.388927	-20.872368	
2.7300	37.146900	12.852334	20.054244	-215.575733	835.876043	7.525531	15.114980	37.767524	38.618162	45.000000	-45.000000	-88.880945	-3525.889101	32.868220	40.521223	1100.062722	93.413285	15.359018	3.581851	10.438616	-45.000000	-38.412577	45.000000	-43.365861	-259.282435	-1724.177468	22.176675	-29.766303	8.145207	4.798122	10.302416	-20.824147	
2.7400	37.297804	12.562261	19.651422	-219.368583	836.879431	7.605472	15.060894	37.738810	38.435917	45.000000	-45.000000	-88.983699	-3526.038550	32.726497	42.740340	1100.794308	100.805894	15.009712	3.720571	10.430126	-45.000000	-38.261295	45.000000	-43.795377	-259.116130	-1724.147799	22.099632	-30.059123	8.142618	4.659025	10.219599	-20.805459	
2.7500	37.433215	12.300778	19.278860	-222.976238	837.725362	7.688577	15.005503	37.710378	38.251080	45.000000	-45.000000	-89.080222	-3526.233502	32.568415	45.173476	1101.512467	108.531519	14.681428	3.892592	10.408685	-45.000000	-38.114884	45.000000	-44.160382	-258.952134	-1724.143634	22.004965	-30.355047	8.140761	4.710103	10.149899	-20.812947	
2.7600	37.549564	12.069485	18.948546	-226.389044	838.414807	7.771461	14.962346	37.679350	38.074082	45.000000	-45.000000	-89.151164	-3526.479917	32.351400	48.040232	1102.224708	117.251666	14.342200	4.104257	10.375002	-45.000000	-37.968023	45.000000	-44.480015	-258.781345	-1724.157981	21.902282	-30.652329	8.144060	5.029794	10.080910	-20.867411	
2.7700	37.651957	11.856463	18.633876	-229.597360	838.949614	7.850096	14.908395	37.656376	37.898933	45.000000	-45.000000	-89.233752	-3526.775866	32.144631	51.121679	1102.864522	126.141859	14.041533	4.334473	10.314986	-45.000000	-37.847775	45.000000	-44.632624	-258.613019	-1724.197040	21.760213	-30.968962	8.130099	5.573143	10.030729	-20.946780	
2.7800	37.739357	11.669378	18.353583	-232.592289	839.332532	7.919887	14.844847	37.644829	37.727918	45.000000	-45.000000	-89.283220	-3527.075033	31.906887	54.173354	1103.422419	134.733888	13.792628	4.558613	10.258607	-45.000000	-37.720845	45.000000	-44.777959	-258.451705	-1724.243825	21.617086	-31.285825	8.118703	6.273901	9.952175	-21.041627	
2.7900	37.818097	11.505093	18.093731	-235.365973	839.567266	7.975888	14.751183	37.659483	37.546924	45.000000	-45.000000	-89.317334	-3527.337497	31.696287	56.724186	1103.864013	141.669501	13.647145	4.730038	10.208460	-45.000000	-37.584870	45.000000	-44.899072	-258.315600	-1724.299070	21.467941	-31.592939	8.095990	6.989543	9.847935	-21.119204	
2.8000	37.886462	11.364549	17.856563	-237.912295	839.658743	8.013152	14.652049	37.682312	37.357279	45.000000	-45.000000	-89.323077	-3527.557490	31.506258	58.775309	1104.204498	147.000682	13.559008	4.840055	10.158804	-45.000000	-37.442522	45.000000	-45.000000	-258.196464	-1724.360097	21.317913	-31.909509	8.064256	7.716311	9.726673	-21.191322	
2.8100	37.944908	11.242499	17.635666	-240.227117	839.613596	8.027204	14.553249	37.697972	37.168053	45.000000	-45.000000	-89.320796	-3527.733327	31.374331	60.076015	1104.403515	149.755806	13.525716	4.871946	10.102153	-45.000000	-37.313362	45.000000	-45.000000	-258.078074	-1724.428987	21.146031	-32.319287	8.034344	8.396451	9.615508	-21.246260	
2.8200	37.992492	11.141233	17.434620	-242.308072	839.440442	8.014585	14.467442	37.698106	36.979641	45.000000	-45.000000	-89.282903	-3527.862971	31.262721	60.765757	1104.504104	150.580840	13.529261	4.838912	10.051090	-45.000000	-37.188197	45.000000	-45.000000	-257.968542	-1724.500557	20.986441	-32.732177	8.013939	9.035109	9.501378	-21.296522	
2.8300	38.030280	11.060989	17.260093	-244.154796	839.150072	7.973376	14.397234	37.683264	36.791898	45.000000	-45.000000	-89.219933	-3527.956635	31.173914	60.997000	1104.539366	149.997525	13.560775	4.760127	10.009870	-45.000000	-37.065490	45.000000	-45.000000	-257.869872	-1724.576304	20.842773	-33.106197	7.993245	9.644822	9.387314	-21.342273	
2.8400	38.060123	11.000665	17.104177	-245.768733	838.755429	7.903579	14.344990	37.655612	36.601451	45.000000	-45.000000	-89.133534	-3528.042240	31.089853	61.181680	1104.574318	149.413521	13.592238	4.675004	9.973781	-45.000000	-36.954089	45.000000	-45.000000	-257.793648	-1724.660931	20.722198	-33.364500	7.956112	10.294545	9.277884	-21.399077	
2.8500	38.082733	10.962298	16.978876	-247.154870	838.271375	7.807232	14.310460	37.612763	36.416144	45.000000	-45.000000	-89.038412	-3528.124187	31.017022	61.350684	1104.605632	148.855213	13.620438	4.597795	9.950153	-45.000000	-36.851669	45.000000	-45.000000	-257.731976	-1724.750765	20.619199	-33.561562	7.903574	10.974965	9.167061	-21.455006	
2.8600	38.097639	10.950111	16.886343	-248.320092	837.713923	7.688327	14.290982	37.561690	36.242482	45.000000	-45.000000	-88.943994	-3528.207641	30.950024	61.521940	1104.639115	148.346558	13.644354	4.529631	9.938814	-45.000000	-36.761381	45.000000	-45.000000	-257.682167	-1724.841930	20.531920	-33.706040	7.845582	11.669443	9.052505	-21.509790	
2.8700	38.103440	10.966439	16.840888	-249.283817	837.099971	7.552127	14.285663	37.507818	36.088079	45.000000	-45.000000	-88.863941	-3528.294692	30.889166	61.700522	1104.679450	147.902401	13.662375	4.472935	9.940468	-45.000000	-36.678501	45.000000	-45.000000	-257.632201	-1724.930302	20.453923	-33.801323	7.792113	12.366656	8.932944	-21.564485	
2.8800	38.105263	10.995685	16.818817	-250.060703	836.444835	7.404605	14.286573	37.458348	35.947439	45.000000	-45.000000	-88.789963	-3528.376597	30.839607	61.904901	1104.730584	147.533286	13.675697	4.423551	9.950500	-45.000000	-36.605131	45.000000	-45.000000	-257.588712	-1725.015062	20.388311	-33.857849	7.753874	13.064847	8.811575	-21.623007	
2.8900	38.094181	11.058164	16.854154	-250.729895	835.765509	7.249805	14.292258	37.419324	35.844796	45.000000	-45.000000	-88.744591	-3528.476311	30.767055	62.102851	1104.803057	147.211467	13.681482	4.383858	9.973440	-45.000000	-36.534559	45.000000	-45.000000	-257.513726	-1725.089389	20.320069	-33.868011	7.764309	13.750916	8.679167	-21.687875	
